<?xml version="1.0" encoding="utf-8"?>
<!-- Generator: Adobe Illustrator 15.1.0, SVG Export Plug-In . SVG Version: 6.00 Build 0)  -->
<!DOCTYPE svg PUBLIC "-//W3C//DTD SVG 1.1//EN" "http://www.w3.org/Graphics/SVG/1.1/DTD/svg11.dtd">
<svg version="1.1" id="Layer_1" xmlns="http://www.w3.org/2000/svg" xmlns:xlink="http://www.w3.org/1999/xlink" x="0px" y="0px"
	 width="227px" height="32.182px" viewBox="0 0 227 32.182" enable-background="new 0 0 227 32.182" xml:space="preserve">
<g>
	<path fill="#8D734A" d="M16.161,5.086v4.672c0,2.562,0.104,5.33,0.277,6.921h-0.069c-0.519-1.627-1.384-3.807-2.595-6.195
		l-4.671-9.17H0v3.184l2.284,0.588v16.888L0,22.562v2.873h9.551v-2.873l-2.318-0.588v-6.092c0-2.767-0.07-5.606-0.242-7.301h0.069
		c0.553,1.592,1.557,4.118,2.629,6.092l5.884,10.762h5.551V5.086l2.145-0.588V1.315h-9.426v3.184L16.161,5.086L16.161,5.086z"/>
	<polygon fill="#8D734A" points="57.64,22.217 57.64,7.579 50.164,7.579 50.164,10.935 51.93,11.455 51.93,22.217 50.164,22.562 
		50.164,25.436 59.404,25.436 59.404,22.562 57.64,22.217 	"/>
	<path fill="#8D734A" d="M54.663,6.263c1.696,0,3.115-1.418,3.115-3.149C57.778,1.418,56.359,0,54.628,0
		c-1.695,0-3.114,1.418-3.114,3.149C51.514,4.845,52.933,6.263,54.663,6.263L54.663,6.263z"/>
	<path fill="#8D734A" d="M75.708,16.576c0-6.714-2.907-9.448-8.063-9.448c-5.157,0-8.098,2.562-8.098,9.274
		c0,6.715,2.907,9.482,8.063,9.482C72.766,25.885,75.708,23.289,75.708,16.576L75.708,16.576z M69.583,16.299
		c0,4.602-0.312,6.195-1.938,6.195c-1.627,0-1.972-1.559-1.972-6.021c0-4.396,0.311-5.849,1.938-5.849
		C69.236,10.624,69.583,12.077,69.583,16.299L69.583,16.299z"/>
	<path fill="#8D734A" d="M86.952,25.436h7.475v-2.873l-1.765-0.346V12.146c0-3.184-1.315-5.018-4.084-5.018
		c-2.249,0-3.46,0.762-5.225,2.353l-0.45-1.902h-6.816v3.356l1.764,0.52v10.762l-1.764,0.346v2.873h9.1v-2.873l-1.625-0.346v-9.863
		c0.589-0.347,1.106-0.623,1.903-0.623c1.107,0,1.488,0.692,1.488,2.388V25.436L86.952,25.436z"/>
	<path fill="#8D734A" d="M130.931,5.086l2.318-0.588V1.315h-10.901v3.184l2.423,0.588v18.066c0,3.32-1.314,4.256-3.875,5.951
		l1.487,3.078c4.638-1.418,8.548-4.082,8.548-9.203V5.086L130.931,5.086z"/>
	<path fill="#8D734A" d="M148.688,16.576c0-6.714-2.907-9.448-8.063-9.448s-8.099,2.562-8.099,9.274
		c0,6.715,2.908,9.482,8.063,9.482C145.746,25.885,148.688,23.289,148.688,16.576L148.688,16.576z M142.562,16.299
		c0,4.602-0.312,6.195-1.938,6.195c-1.627,0-1.973-1.559-1.973-6.021c0-4.396,0.312-5.849,1.938-5.849
		C142.216,10.624,142.562,12.077,142.562,16.299L142.562,16.299z"/>
	<path fill="#8D734A" d="M159.827,11.42v9.515c-0.624,0.416-1.384,0.658-1.974,0.658c-0.898,0-1.453-0.553-1.453-1.973V7.579h-7.475
		v3.356l1.766,0.485v10.035c0,3.287,2.076,4.43,4.152,4.43c2.353,0,3.807-0.9,5.468-2.248l0.45,1.799h6.539v-2.873l-1.763-0.346
		V7.579h-7.233v3.356L159.827,11.42L159.827,11.42z"/>
	<path fill="#8D734A" d="M192.707,25.436h7.475v-2.873l-1.764-0.346V12.146c0-3.184-1.315-5.018-4.084-5.018
		c-2.25,0-3.462,0.762-5.225,2.353l-0.451-1.902h-6.818v3.356l1.766,0.52v10.762l-1.766,0.346v2.873h9.103v-2.873l-1.626-0.346
		v-9.863c0.588-0.347,1.106-0.623,1.901-0.623c1.108,0,1.489,0.692,1.489,2.388V25.436L192.707,25.436z"/>
	<polygon fill="#8D734A" points="219.386,22.217 217.482,22.562 217.482,25.436 227,25.436 227,22.562 225.097,22.217 
		225.097,1.313 217.482,1.313 217.482,4.496 219.386,5.016 219.386,22.217 	"/>
	<path fill="#8D734A" d="M216.634,24.98v-2.838c-1.409,0.047-1.548-0.174-1.548-1.211v-7.752c0-4.533-2.389-6.056-6.748-6.056
		c-2.978,0-5.469,0.692-7.476,2.11l1.557,3.703c1.593-0.796,3.012-1.28,4.707-1.28c1.834,0,2.25,0.727,2.25,2.63v0.415h-0.728
		c-5.675,0-7.992,1.697-7.992,5.675c0,3.912,2.282,5.502,5.12,5.502c2.354,0,3.114-0.83,4.118-1.867
		c0.622,1.488,1.834,1.867,3.53,1.867C214.982,25.879,216.012,25.396,216.634,24.98L216.634,24.98z M209.376,21.623
		c-0.416,0.346-0.762,0.553-1.488,0.553c-1.143,0-1.626-0.621-1.626-2.109c0-1.938,0.795-2.424,2.18-2.424h0.935V21.623
		L209.376,21.623z"/>
	<polygon fill="#8D734A" points="113.627,22.217 111.724,22.562 111.724,25.436 121.24,25.436 121.24,22.562 119.337,22.217 
		119.337,1.313 111.724,1.313 111.724,4.496 113.627,5.016 113.627,22.217 	"/>
	<path fill="#8D734A" d="M110.876,24.98v-2.838c-1.411,0.047-1.549-0.174-1.549-1.211v-7.752c0-4.533-2.389-6.056-6.749-6.056
		c-2.976,0-5.467,0.692-7.475,2.11l1.558,3.703c1.592-0.796,3.011-1.28,4.706-1.28c1.834,0,2.25,0.727,2.25,2.63v0.415h-0.727
		c-5.675,0-7.994,1.697-7.994,5.675c0,3.912,2.285,5.502,5.122,5.502c2.353,0,3.115-0.83,4.118-1.867
		c0.623,1.488,1.834,1.867,3.53,1.867C109.223,25.879,110.252,25.396,110.876,24.98L110.876,24.98z M103.617,21.623
		c-0.416,0.346-0.761,0.553-1.489,0.553c-1.142,0-1.625-0.621-1.625-2.109c0-1.938,0.796-2.424,2.18-2.424h0.935V21.623
		L103.617,21.623z"/>
	<path fill="#8D734A" d="M38.463,24.98v-2.838c-1.412,0.047-1.549-0.174-1.549-1.211v-7.752c0-4.533-2.388-6.056-6.749-6.056
		c-2.976,0-5.467,0.692-7.475,2.11l1.557,3.703c1.592-0.796,3.011-1.28,4.707-1.28c1.834,0,2.25,0.727,2.25,2.63v0.415h-0.727
		c-5.676,0-7.994,1.697-7.994,5.675c0,3.912,2.284,5.502,5.121,5.502c2.353,0,3.115-0.83,4.119-1.867
		c0.623,1.488,1.834,1.867,3.529,1.867C36.811,25.879,37.839,25.396,38.463,24.98L38.463,24.98z M31.204,21.623
		c-0.415,0.346-0.761,0.553-1.488,0.553c-1.142,0-1.627-0.621-1.627-2.109c0-1.938,0.797-2.424,2.181-2.424h0.934V21.623
		L31.204,21.623z"/>
	<path fill="#8D734A" d="M38.13,11.527h1.835v9.446c0,3.393,1.765,4.916,4.879,4.916c2.042,0,3.107-0.416,3.938-0.865v-3.461
		c-0.277,0.137-1.308,0.311-1.896,0.311c-0.831,0-1.211-0.484-1.211-1.834v-8.512h3.114V7.582h-3.114V2.425l-5.71,0.9v4.256H38.13
		V11.527L38.13,11.527z"/>
	<path fill="#8D734A" d="M175.767,22.145V13.32c0.728-0.415,1.959-0.691,2.996-0.691c0.899,0,1.622,0.138,2.174,0.449V7.229
		c-0.207-0.069-0.481-0.104-0.758-0.104c-2.146,0-3.616,0.935-4.723,3.392l-0.692-2.941h-6.471v3.356l1.764,0.484v10.798
		l-1.764,0.346v2.873h9.688v-2.873L175.767,22.145L175.767,22.145z"/>
</g>
</svg>
